<svg width="155" height="28" viewBox="0 0 155 28" fill="none" xmlns="http://www.w3.org/2000/svg">
<path d="M7.51136 22.2983C6.01989 22.2983 4.72727 21.9702 3.63352 21.3139C2.53977 20.6577 1.69129 19.7396 1.08807 18.5597C0.491477 17.3797 0.193182 16.0009 0.193182 14.4233C0.193182 12.8456 0.491477 11.4635 1.08807 10.277C1.69129 9.09043 2.53977 8.16903 3.63352 7.51278C4.72727 6.85653 6.01989 6.52841 7.51136 6.52841C9.00284 6.52841 10.2955 6.85653 11.3892 7.51278C12.483 8.16903 13.3281 9.09043 13.9247 10.277C14.5279 11.4635 14.8295 12.8456 14.8295 14.4233C14.8295 16.0009 14.5279 17.3797 13.9247 18.5597C13.3281 19.7396 12.483 20.6577 11.3892 21.3139C10.2955 21.9702 9.00284 22.2983 7.51136 22.2983ZM7.53125 19.4148C8.33996 19.4148 9.0161 19.1927 9.55966 18.7486C10.1032 18.2978 10.5076 17.6946 10.7727 16.9389C11.0445 16.1832 11.1804 15.3414 11.1804 14.4134C11.1804 13.4787 11.0445 12.6335 10.7727 11.8778C10.5076 11.1155 10.1032 10.509 9.55966 10.0582C9.0161 9.60748 8.33996 9.3821 7.53125 9.3821C6.70265 9.3821 6.01326 9.60748 5.46307 10.0582C4.91951 10.509 4.51184 11.1155 4.24006 11.8778C3.97491 12.6335 3.84233 13.4787 3.84233 14.4134C3.84233 15.3414 3.97491 16.1832 4.24006 16.9389C4.51184 17.6946 4.91951 18.2978 5.46307 18.7486C6.01326 19.1927 6.70265 19.4148 7.53125 19.4148ZM17.8846 27.7273V6.72727H21.4244V9.25284H21.6332C21.8188 8.88163 22.0806 8.48722 22.4187 8.0696C22.7567 7.64536 23.2141 7.28409 23.7908 6.98579C24.3675 6.68087 25.1033 6.52841 25.9982 6.52841C27.1781 6.52841 28.2421 6.83002 29.19 7.43324C30.1445 8.02983 30.9002 8.91477 31.457 10.0881C32.0205 11.2547 32.3022 12.6866 32.3022 14.3835C32.3022 16.0606 32.0271 17.4858 31.4769 18.6591C30.9267 19.8324 30.1777 20.7273 29.2298 21.3438C28.2818 21.9602 27.208 22.2685 26.0082 22.2685C25.1332 22.2685 24.4073 22.1226 23.8306 21.831C23.2539 21.5393 22.7899 21.188 22.4386 20.777C22.0939 20.3594 21.8254 19.965 21.6332 19.5938H21.484V27.7273H17.8846ZM21.4144 14.3636C21.4144 15.3513 21.5536 16.2164 21.832 16.9588C22.1171 17.7012 22.5247 18.2812 23.055 18.6989C23.592 19.1098 24.2416 19.3153 25.0039 19.3153C25.7994 19.3153 26.4656 19.1032 27.0025 18.679C27.5394 18.2481 27.9438 17.6615 28.2156 16.919C28.494 16.17 28.6332 15.3182 28.6332 14.3636C28.6332 13.4157 28.4973 12.5739 28.2255 11.8381C27.9537 11.1023 27.5494 10.5256 27.0124 10.108C26.4755 9.69034 25.806 9.48153 25.0039 9.48153C24.235 9.48153 23.582 9.68371 23.0451 10.0881C22.5082 10.4924 22.1005 11.0592 21.8221 11.7884C21.5503 12.5175 21.4144 13.3759 21.4144 14.3636ZM42.146 22.2983C40.6147 22.2983 39.2923 21.9801 38.1786 21.3438C37.0716 20.7008 36.2198 19.7926 35.6232 18.6193C35.0266 17.4394 34.7283 16.0507 34.7283 14.4531C34.7283 12.8821 35.0266 11.5033 35.6232 10.3168C36.2264 9.12358 37.0683 8.19555 38.1488 7.53267C39.2293 6.86316 40.4987 6.52841 41.957 6.52841C42.8983 6.52841 43.7866 6.68087 44.6218 6.98579C45.4637 7.28409 46.2061 7.74811 46.8491 8.37784C47.4987 9.00758 48.0091 9.80966 48.3803 10.7841C48.7515 11.7519 48.9371 12.9053 48.9371 14.2443V15.348H36.4187V12.9219H45.4869C45.4802 12.2325 45.3311 11.6193 45.0394 11.0824C44.7478 10.5388 44.3401 10.1113 43.8164 9.79972C43.2994 9.48816 42.6961 9.33239 42.0067 9.33239C41.271 9.33239 40.6246 9.51136 40.0678 9.86932C39.511 10.2206 39.0768 10.6847 38.7653 11.2614C38.4603 11.8314 38.3046 12.4579 38.2979 13.1406V15.2585C38.2979 16.1468 38.4603 16.9091 38.7852 17.5455C39.11 18.1752 39.564 18.6591 40.1474 18.9972C40.7307 19.3286 41.4135 19.4943 42.1957 19.4943C42.7193 19.4943 43.1933 19.4214 43.6175 19.2756C44.0418 19.1231 44.4097 18.901 44.7212 18.6094C45.0328 18.3177 45.2681 17.9564 45.4272 17.5256L48.788 17.9034C48.5759 18.7917 48.1715 19.5672 47.5749 20.2301C46.985 20.8864 46.2293 21.3968 45.3079 21.7614C44.3865 22.1193 43.3325 22.2983 42.146 22.2983ZM55.5817 13.0511V22H51.9822V6.72727H55.4226V9.32244H55.6016C55.9529 8.46733 56.513 7.78788 57.282 7.28409C58.0575 6.7803 59.0154 6.52841 60.1555 6.52841C61.2095 6.52841 62.1276 6.75379 62.9098 7.20454C63.6986 7.6553 64.3085 8.30824 64.7393 9.16335C65.1768 10.0185 65.3923 11.0559 65.3857 12.2756V22H61.7862V12.8324C61.7862 11.8116 61.5211 11.0128 60.9908 10.4361C60.4671 9.85937 59.7412 9.57102 58.8132 9.57102C58.1835 9.57102 57.6233 9.71023 57.1328 9.98864C56.6489 10.2604 56.2678 10.6548 55.9893 11.1719C55.7176 11.6889 55.5817 12.3153 55.5817 13.0511ZM75.9901 22V6.72727H79.4304V9.32244H79.6094C79.9276 8.44744 80.4545 7.76468 81.1903 7.27415C81.9261 6.77699 82.8045 6.52841 83.8253 6.52841C84.8594 6.52841 85.7311 6.7803 86.4403 7.28409C87.1563 7.78125 87.66 8.4607 87.9517 9.32244H88.1108C88.4489 8.47396 89.0189 7.79782 89.821 7.29403C90.6297 6.78362 91.5876 6.52841 92.6946 6.52841C94.0999 6.52841 95.2467 6.97254 96.1349 7.86079C97.0232 8.74905 97.4673 10.045 97.4673 11.7486V22H93.858V12.3054C93.858 11.3575 93.6061 10.6648 93.1023 10.2273C92.5985 9.78314 91.982 9.56108 91.2528 9.56108C90.3845 9.56108 89.705 9.83286 89.2145 10.3764C88.7306 10.9134 88.4886 11.6127 88.4886 12.4744V22H84.9588V12.1562C84.9588 11.3674 84.7202 10.7377 84.2429 10.267C83.7723 9.7964 83.1558 9.56108 82.3935 9.56108C81.8764 9.56108 81.4058 9.69365 80.9815 9.95881C80.5573 10.2173 80.2192 10.5852 79.9673 11.0625C79.7154 11.5331 79.5895 12.0833 79.5895 12.7131V22H75.9901ZM110.853 15.5767V6.72727H114.453V22H110.963V19.2855H110.804C110.459 20.1406 109.892 20.84 109.103 21.3835C108.321 21.9271 107.357 22.1989 106.21 22.1989C105.209 22.1989 104.324 21.9768 103.555 21.5327C102.793 21.0819 102.196 20.429 101.765 19.5739C101.334 18.7121 101.119 17.6714 101.119 16.4517V6.72727H104.718V15.8949C104.718 16.8627 104.984 17.6316 105.514 18.2017C106.044 18.7718 106.74 19.0568 107.602 19.0568C108.132 19.0568 108.646 18.9276 109.143 18.669C109.64 18.4105 110.048 18.026 110.366 17.5156C110.691 16.9986 110.853 16.3523 110.853 15.5767ZM130.225 10.7642L126.944 11.1222C126.851 10.7907 126.689 10.4792 126.457 10.1875C126.231 9.89583 125.926 9.66051 125.542 9.48153C125.157 9.30256 124.687 9.21307 124.13 9.21307C123.381 9.21307 122.751 9.37547 122.241 9.70028C121.737 10.0251 121.488 10.446 121.495 10.9631C121.488 11.4072 121.651 11.7685 121.982 12.0469C122.32 12.3253 122.877 12.554 123.653 12.733L126.258 13.2898C127.703 13.6013 128.777 14.0952 129.479 14.7713C130.189 15.4474 130.547 16.3324 130.553 17.4261C130.547 18.3873 130.265 19.2358 129.708 19.9716C129.158 20.7008 128.392 21.2708 127.411 21.6818C126.43 22.0928 125.303 22.2983 124.031 22.2983C122.161 22.2983 120.656 21.9072 119.516 21.125C118.376 20.3362 117.697 19.2391 117.478 17.8338L120.988 17.4957C121.147 18.1851 121.485 18.7055 122.002 19.0568C122.519 19.4081 123.192 19.5838 124.021 19.5838C124.876 19.5838 125.562 19.4081 126.079 19.0568C126.603 18.7055 126.864 18.2713 126.864 17.7543C126.864 17.3168 126.695 16.9555 126.357 16.6705C126.026 16.3854 125.509 16.1667 124.806 16.0142L122.201 15.4673C120.736 15.1624 119.652 14.6487 118.95 13.9261C118.247 13.197 117.899 12.2756 117.906 11.1619C117.899 10.2206 118.154 9.4053 118.671 8.71591C119.195 8.01989 119.921 7.48295 120.849 7.10511C121.783 6.72064 122.861 6.52841 124.08 6.52841C125.87 6.52841 127.279 6.90956 128.306 7.67188C129.34 8.43419 129.98 9.46496 130.225 10.7642ZM133.521 22V6.72727H137.121V22H133.521ZM135.331 4.55966C134.761 4.55966 134.27 4.37074 133.859 3.9929C133.448 3.60843 133.243 3.14773 133.243 2.61079C133.243 2.06723 133.448 1.60653 133.859 1.22869C134.27 0.844223 134.761 0.651988 135.331 0.651988C135.908 0.651988 136.398 0.844223 136.803 1.22869C137.214 1.60653 137.419 2.06723 137.419 2.61079C137.419 3.14773 137.214 3.60843 136.803 3.9929C136.398 4.37074 135.908 4.55966 135.331 4.55966ZM147.484 22.2983C145.959 22.2983 144.65 21.9635 143.556 21.294C142.469 20.6245 141.631 19.6998 141.041 18.5199C140.458 17.3333 140.166 15.9678 140.166 14.4233C140.166 12.8722 140.464 11.5033 141.061 10.3168C141.657 9.12358 142.499 8.19555 143.586 7.53267C144.68 6.86316 145.973 6.52841 147.464 6.52841C148.704 6.52841 149.801 6.7571 150.755 7.21449C151.717 7.66525 152.482 8.30492 153.052 9.13352C153.622 9.95549 153.947 10.9167 154.027 12.017H150.586C150.447 11.2812 150.116 10.6681 149.592 10.1776C149.075 9.6804 148.382 9.43182 147.514 9.43182C146.778 9.43182 146.132 9.63068 145.575 10.0284C145.018 10.4195 144.584 10.983 144.272 11.7188C143.967 12.4545 143.815 13.3362 143.815 14.3636C143.815 15.4044 143.967 16.2992 144.272 17.0483C144.577 17.7907 145.005 18.3641 145.555 18.7685C146.112 19.1662 146.765 19.3651 147.514 19.3651C148.044 19.3651 148.518 19.2656 148.936 19.0668C149.36 18.8613 149.715 18.5663 150 18.1818C150.285 17.7973 150.48 17.33 150.586 16.7798H154.027C153.94 17.8603 153.622 18.8182 153.072 19.6534C152.522 20.482 151.773 21.1316 150.825 21.6023C149.877 22.0663 148.763 22.2983 147.484 22.2983Z" fill="#212529"/>
</svg>
